HIERARCHY
ROOT Hips
{
	OFFSET 0.000000 0.000000 0.000000
	CHANNELS 6 Xposition Yposition Zposition Xrotation Yrotation Zrotation
	JOINT LeftUpLeg_virtual
	{
		OFFSET 0.000000 0.000000 0.000000
		CHANNELS 3 Xrotation Yrotation Zrotation
		JOINT LeftUpLeg
		{
			OFFSET 15.427100 -6.655098 0.678600
			CHANNELS 3 Xrotation Yrotation Zrotation
			JOINT LeftLeg
			{
				OFFSET 4.081073 -39.591068 13.024000
				CHANNELS 3 Xrotation Yrotation Zrotation
				JOINT LeftFoot
				{
					OFFSET -4.081074 -37.707932 -15.979700
					CHANNELS 3 Xrotation Yrotation Zrotation
					JOINT LeftToeBase
					{
						OFFSET 5.346399 -15.068900 20.645000
						CHANNELS 3 Xrotation Yrotation Zrotation
						JOINT LeftToe_End
						{
							OFFSET 2.754700 0.931300 11.300900
							CHANNELS 3 Xrotation Yrotation Zrotation
							End Site
							{
								OFFSET 0 0 0
							}
						}
					}
				}
			}
		}
	}
	JOINT RightUpLeg_virtual
	{
		OFFSET 0.000000 0.000000 0.000000
		CHANNELS 3 Xrotation Yrotation Zrotation
		JOINT RightUpLeg
		{
			OFFSET -15.569500 -6.655098 0.678600
			CHANNELS 3 Xrotation Yrotation Zrotation
			JOINT RightLeg
			{
				OFFSET -4.081825 -39.591045 13.023800
				CHANNELS 3 Xrotation Yrotation Zrotation
				JOINT RightFoot
				{
					OFFSET 4.081824 -37.707954 -15.979600
					CHANNELS 3 Xrotation Yrotation Zrotation
					JOINT RightToeBase
					{
						OFFSET -5.346400 -15.068900 20.645000
						CHANNELS 3 Xrotation Yrotation Zrotation
						JOINT RightToe_End
						{
							OFFSET -2.754700 0.931300 11.300900
							CHANNELS 3 Xrotation Yrotation Zrotation
							End Site
							{
								OFFSET 0 0 0
							}
						}
					}
				}
			}
		}
	}
	JOINT Spine_virtual
	{
		OFFSET 0.000000 0.000000 0.000000
		CHANNELS 3 Xrotation Yrotation Zrotation
		JOINT Spine
		{
			OFFSET -0.279200 12.230698 -2.892100
			CHANNELS 3 Xrotation Yrotation Zrotation
			JOINT Spine1
			{
				OFFSET -0.232667 10.192268 -1.242267
				CHANNELS 3 Xrotation Yrotation Zrotation
				JOINT Spine1_split
				{
					OFFSET -0.232667 10.192268 -1.242267
					CHANNELS 3 Xrotation Yrotation Zrotation
					JOINT Spine2
					{
						OFFSET -0.232667 10.192268 -1.242267
						CHANNELS 3 Xrotation Yrotation Zrotation
						JOINT Neck_virtual
						{
							OFFSET 0.000000 0.000000 0.000000
							CHANNELS 3 Xrotation Yrotation Zrotation
							JOINT Neck
							{
								OFFSET -0.418800 17.814194 8.416900
								CHANNELS 3 Xrotation Yrotation Zrotation
								JOINT Head
								{
									OFFSET 0.000000 7.031097 3.806800
									CHANNELS 3 Xrotation Yrotation Zrotation
									JOINT HeadTop_End
									{
										OFFSET 0.000000 24.646606 12.978600
										CHANNELS 3 Xrotation Yrotation Zrotation
										End Site
										{
											OFFSET 0 0 0
										}
									}
								}
							}
						}
						JOINT LeftShoulder_virtual
						{
							OFFSET 0.000000 0.000000 0.000000
							CHANNELS 3 Xrotation Yrotation Zrotation
							JOINT LeftShoulder
							{
								OFFSET 8.476499 7.247704 -3.868750
								CHANNELS 3 Xrotation Yrotation Zrotation
								JOINT LeftShoulder_split
								{
									OFFSET 8.476499 7.247704 -3.868750
									CHANNELS 3 Xrotation Yrotation Zrotation
									JOINT LeftArm
									{
										OFFSET 9.308998 -2.777710 0.208600
										CHANNELS 3 Xrotation Yrotation Zrotation
										JOINT LeftForeArm
										{
											OFFSET 29.972298 0.000000 0.000000
											CHANNELS 3 Xrotation Yrotation Zrotation
											JOINT LeftHand
											{
												OFFSET 26.026505 0.000000 0.000000
												CHANNELS 3 Xrotation Yrotation Zrotation
												End Site
												{
													OFFSET 0 0 0
												}
											}
										}
									}
								}
							}
						}
						JOINT RightShoulder_virtual
						{
							OFFSET 0.000000 0.000000 0.000000
							CHANNELS 3 Xrotation Yrotation Zrotation
							JOINT RightShoulder
							{
								OFFSET -7.570500 7.247704 -3.868750
								CHANNELS 3 Xrotation Yrotation Zrotation
								JOINT RightShoulder_split
								{
									OFFSET -7.570500 7.247704 -3.868750
									CHANNELS 3 Xrotation Yrotation Zrotation
									JOINT RightArm
									{
										OFFSET -9.308998 -2.777710 0.208500
										CHANNELS 3 Xrotation Yrotation Zrotation
										JOINT RightForeArm
										{
											OFFSET -29.972300 0.000000 0.000000
											CHANNELS 3 Xrotation Yrotation Zrotation
											JOINT RightHand
											{
												OFFSET -26.026505 0.000000 0.000000
												CHANNELS 3 Xrotation Yrotation Zrotation
												End Site
												{
													OFFSET 0 0 0
												}
											}
										}
									}
								}
							}
						}
					}
				}
			}
		}
	}
}
MOTION
Frames: 7
Frame Time: 0.03333333
-0.403636 90.437141 -1.842484 0.000000 0.000000 0.000000 2.862297 -30.410536 -0.113955 -18.378857 13.495756 16.242144 20.121368 8.246654 -4.689724 -4.692852 -4.714886 -1.932738 0.976033 0.017748 -1.689456 0.000000 0.000000 0.000000 2.961982 -30.210473 0.142877 -2.979113 -3.073502 -8.917957 11.227119 5.377519 4.479709 -16.961593 1.636180 5.439350 -3.059128 0.280409 -0.616573 0.000000 0.000000 0.000000 3.477536 -27.709166 -0.528587 6.015960 -1.372850 0.173176 2.177557 -1.122297 2.708689 0.416068 -4.336292 0.455344 0.000000 0.000000 0.000000 2.580865 -0.392026 2.590664 -6.598574 18.243483 -7.751888 -2.027518 22.672903 4.456967 0.000000 0.000000 0.000000 2.524795 0.000887 2.809235 0.901055 -10.214449 -3.689471 0.410784 -4.272291 -1.814858 -61.225112 -0.414276 -34.605625 22.596048 -63.896112 23.796533 0.000000 0.000000 0.000000 2.206267 -0.602468 2.249526 3.774770 7.716752 7.707962 -0.826823 -3.725381 1.794577 -1.537233 -0.661329 61.205195 16.196843 14.505182 -7.603627 0.000000 0.000000 0.000000 
-0.169177 90.197334 -1.619617 0.000000 0.000000 0.000000 2.603437 -29.758619 -0.249356 -18.977698 14.853892 16.383677 20.411484 8.026719 -4.574011 -5.214952 -5.165016 -2.194917 0.757089 -0.049089 -1.513408 0.000000 0.000000 0.000000 2.979265 -29.208057 0.116585 -2.811545 -2.717274 -9.056130 11.155027 4.885586 4.264229 -17.063986 1.069339 6.602673 -4.162913 0.195380 -0.650668 0.000000 0.000000 0.000000 3.018134 -25.953551 -0.271419 5.729356 -1.013246 0.115539 2.370581 -0.900904 2.642969 -1.013708 -1.647267 0.401259 0.000000 0.000000 0.000000 2.302354 -0.274265 2.390692 -6.433588 17.184742 -7.345352 -2.930142 22.027748 4.911281 0.000000 0.000000 0.000000 2.635932 0.206934 2.696725 0.487056 -8.898534 -4.109537 -0.718740 -2.419626 -2.515295 -60.346415 2.501786 -33.955473 23.715769 -64.247273 24.588954 0.000000 0.000000 0.000000 2.125022 -0.392811 2.109828 3.771687 7.968295 8.178648 -0.807317 -3.757626 1.056237 -0.549706 -0.392348 60.575110 16.650804 15.337567 -7.809606 0.000000 0.000000 0.000000 
-0.070657 89.702995 -0.956787 0.000000 0.000000 0.000000 2.327163 -26.674957 -0.153705 -19.868853 15.026869 15.972551 21.538279 7.435357 -4.555272 -5.743687 -6.171946 -2.342983 0.301520 -0.137133 -1.078244 0.000000 0.000000 0.000000 2.907613 -25.532767 0.152304 -1.926703 -3.280121 -9.177489 12.068254 3.165308 3.951917 -18.648884 -0.702512 6.948966 -3.194332 0.063601 -0.402971 0.000000 0.000000 0.000000 2.792879 -22.312001 0.122745 5.192363 -0.200735 0.218095 2.664712 -0.308755 2.494335 -1.791673 0.114380 0.377349 0.000000 0.000000 0.000000 2.210765 0.190457 2.162441 -6.961635 14.661033 -6.719523 -3.685174 19.173934 4.715162 0.000000 0.000000 0.000000 2.773421 0.685943 2.428005 -0.037917 -6.861227 -4.729597 -1.284310 -1.371663 -2.282867 -61.671718 7.709124 -32.447319 25.082210 -67.146456 25.335994 0.000000 0.000000 0.000000 2.062075 0.162187 1.920559 3.832616 8.565140 8.937308 -0.856318 -3.475592 0.278559 1.019795 -1.471581 60.218800 17.794429 17.278652 -8.579729 0.000000 0.000000 0.000000 
0.002287 89.180794 0.050858 0.000000 0.000000 0.000000 2.096208 -21.361015 0.107821 -20.605771 13.819525 14.828231 22.913674 6.573044 -4.529119 -5.900874 -7.585992 -2.398372 -0.307337 -0.228579 -0.442552 0.000000 0.000000 0.000000 2.792016 -19.799395 0.292859 -0.609402 -4.651070 -9.388713 13.570611 0.515367 3.665450 -21.079526 -3.170512 6.733257 -1.030339 -0.004681 0.023037 0.000000 0.000000 0.000000 2.870662 -17.308628 0.543542 4.389533 1.046724 0.422315 3.021887 0.631560 2.196483 -1.377137 0.819751 0.321966 0.000000 0.000000 0.000000 2.306287 1.012894 1.847239 -8.054145 10.786325 -5.750058 -4.193000 14.360819 3.857309 0.000000 0.000000 0.000000 2.940333 1.461654 2.028198 -0.599115 -4.375572 -5.335049 -0.776682 -1.750005 -0.837691 -64.841875 13.226544 -30.285171 26.592652 -71.839411 25.930472 0.000000 0.000000 0.000000 2.065473 1.053954 1.622561 3.902373 9.333226 9.996176 -1.074846 -3.131943 -0.317774 2.763117 -3.600397 60.176111 19.392557 19.584003 -9.752678 0.000000 0.000000 0.000000 
0.156475 88.856110 1.228451 0.000000 0.000000 0.000000 1.844093 -14.533114 0.409769 -20.784527 11.034886 12.995558 23.921305 5.687544 -4.391020 -5.468337 -9.138182 -2.222896 -0.844241 -0.324063 0.230710 0.000000 0.000000 0.000000 2.683195 -12.669111 0.524635 0.927627 -6.430694 -9.859927 15.546562 -2.274112 3.678593 -23.238064 -5.487210 6.727942 0.260191 0.050771 0.543785 0.000000 0.000000 0.000000 3.096993 -11.406805 0.878044 3.287062 2.670533 0.662661 3.345890 1.878824 1.722808 -0.199047 0.953395 0.523094 0.000000 0.000000 0.000000 2.594991 2.167074 1.418912 -9.522539 5.662459 -4.200558 -4.363935 8.121065 2.379497 0.000000 0.000000 0.000000 3.106897 2.541482 1.529795 -1.104787 -1.699623 -5.860663 0.217853 -2.755146 1.056569 -68.876604 17.822515 -27.812720 27.087997 -77.216176 25.339211 0.000000 0.000000 0.000000 2.162315 2.243384 1.207785 3.894273 10.087117 11.317541 -1.769737 -2.727403 -0.564651 4.406855 -6.117547 60.241927 21.129663 21.450131 -11.154277 0.000000 0.000000 0.000000 
0.393232 88.792313 2.442127 0.000000 0.000000 0.000000 1.659405 -7.019128 0.623948 -20.178402 6.830432 10.793067 23.916334 4.934156 -4.140900 -4.670967 -10.597139 -1.669179 -0.967218 -0.394427 0.800951 0.000000 0.000000 0.000000 2.482079 -5.307844 0.730136 2.404126 -8.123273 -10.659328 17.956226 -4.600921 4.032719 -23.976425 -7.074834 7.627291 -0.993326 0.203622 1.036343 0.000000 0.000000 0.000000 3.288451 -5.156895 1.019540 1.903747 4.549800 0.940108 3.566890 3.345374 1.128384 1.009851 1.091376 0.618741 0.000000 0.000000 0.000000 3.011685 3.570082 0.888255 -11.013487 -0.514984 -1.921955 -4.064273 1.008279 0.389987 0.000000 0.000000 0.000000 3.242380 3.885277 0.993655 -1.486147 0.900091 -6.211403 1.444890 -4.015849 2.864977 -72.503134 20.690873 -25.527887 23.872097 -82.405836 21.041125 0.000000 0.000000 0.000000 2.353565 3.645245 0.691640 3.724249 10.652914 12.835340 -2.948454 -2.114291 -0.766443 5.910851 -8.323368 60.022507 22.755455 22.570415 -12.617749 0.000000 0.000000 0.000000 
0.814966 88.954811 3.787766 0.000000 0.000000 0.000000 1.495567 0.844086 0.601850 -18.825787 1.757750 8.625061 22.749246 4.256718 -3.986553 -3.748638 -12.029183 -0.881942 -0.686111 -0.440412 1.119474 0.000000 0.000000 0.000000 2.142994 1.759253 0.782700 3.654763 -9.232984 -11.646600 20.840283 -6.234966 4.635443 -22.699584 -7.875496 9.685964 -5.055002 0.311895 1.442674 0.000000 0.000000 0.000000 3.226262 1.439626 1.023064 0.306262 6.502953 1.303578 3.645879 4.920284 0.521949 1.754240 1.064185 0.565428 0.000000 0.000000 0.000000 3.430882 5.083590 0.292249 -12.228881 -7.386460 1.018394 -3.423610 -6.511261 -1.911946 0.000000 0.000000 0.000000 3.335467 5.397571 0.499027 -1.700899 3.186910 -6.275232 2.727040 -5.412290 4.282979 -74.876482 22.101048 -23.728946 5.659064 -86.114103 1.928532 0.000000 0.000000 0.000000 2.667936 5.159308 0.123441 3.408525 10.898691 14.232244 -4.362284 -1.434446 -1.018747 7.437536 -9.513646 59.206129 24.259008 22.893315 -14.141010 0.000000 0.000000 0.000000 
